<svg xmlns="http://www.w3.org/2000/svg" viewBox="0 0 1000 500" role="img" aria-label="Flag of Uzbekistan">
  <rect width="1000" height="500" fill="#1eb4ea"/>
  <rect y="170" width="1000" height="160" fill="#ffffff"/>
  <rect y="330" width="1000" height="170" fill="#1eb53a"/>
  <rect y="160" width="1000" height="10" fill="#ce1126"/>
  <rect y="330" width="1000" height="10" fill="#ce1126"/>
  <circle cx="110" cy="80" r="45" fill="#ffffff"/>
  <circle cx="125" cy="80" r="40" fill="#1eb4ea"/>
  <g fill="#ffffff">
    <g transform="translate(190 45)">
      <circle cx="0" cy="0" r="12"/>
      <circle cx="34" cy="0" r="12"/>
      <circle cx="68" cy="0" r="12"/>
      <circle cx="102" cy="0" r="12"/>
      <circle cx="136" cy="0" r="12"/>
      <circle cx="170" cy="0" r="12"/>
      <circle cx="204" cy="0" r="12"/>
      <circle cx="17" cy="34" r="12"/>
      <circle cx="51" cy="34" r="12"/>
      <circle cx="85" cy="34" r="12"/>
      <circle cx="119" cy="34" r="12"/>
      <circle cx="153" cy="34" r="12"/>
      <circle cx="187" cy="34" r="12"/>
      <circle cx="221" cy="34" r="12"/>
      <circle cx="0" cy="68" r="12"/>
      <circle cx="34" cy="68" r="12"/>
      <circle cx="68" cy="68" r="12"/>
      <circle cx="102" cy="68" r="12"/>
      <circle cx="136" cy="68" r="12"/>
      <circle cx="170" cy="68" r="12"/>
      <circle cx="204" cy="68" r="12"/>
    </g>
  </g>
</svg>
